<?xml version="1.0" encoding="utf-8"?>
<!-- Generator: Adobe Illustrator 23.0.1, SVG Export Plug-In . SVG Version: 6.00 Build 0)  -->
<svg version="1.1" id="Layer_1" xmlns="http://www.w3.org/2000/svg" xmlns:xlink="http://www.w3.org/1999/xlink" x="0px" y="0px"
	 viewBox="0 0 110 92" style="enable-background:new 0 0 110 92;" xml:space="preserve">
<style type="text/css">
	.st0{display:none;}
	.st1{display:inline;opacity:0.22;}
	.st2{fill:#DA4F49;}
	.st3{fill:#32CA65;}
	.st4{fill:#688EFF;}
	.st5{fill:#E3B505;}
	.st6{fill:#DA4F49;stroke:#DA4F49;stroke-width:3;stroke-miterlimit:10;}
	.st7{fill:#DA4F49;stroke:#DA4F49;stroke-width:2;stroke-miterlimit:10;}
</style>
<g>
	<g class="st0">
		<g class="st1">
			<g>
				<rect x="7.97" y="28.11" class="st2" width="19.36" height="3.29"/>
				<rect x="20.48" y="37.15" class="st3" width="19.36" height="3.29"/>
				<rect x="40.64" y="41.67" class="st4" width="19.36" height="3.29"/>
				<rect x="11.6" y="32.63" class="st2" width="11.7" height="3.29"/>
				<rect x="7.57" y="37.15" class="st5" width="11.7" height="3.29"/>
				<rect x="41.04" y="37.15" class="st2" width="11.7" height="3.29"/>
				<rect x="13.22" y="41.67" class="st5" width="11.7" height="3.29"/>
				<rect x="26.93" y="41.67" class="st3" width="11.7" height="3.29"/>
				<rect x="24.91" y="32.63" class="st5" width="11.7" height="3.29"/>
				<rect x="41.45" y="28.11" class="st5" width="11.7" height="3.29"/>
				<rect x="37.82" y="32.63" class="st3" width="11.7" height="3.29"/>
				<rect x="28.54" y="28.11" class="st4" width="11.7" height="3.29"/>
			</g>
			<g>
				<rect x="6.59" y="9.52" class="st2" width="19.36" height="3.29"/>
				<rect x="19.09" y="18.56" class="st3" width="19.36" height="3.29"/>
				<rect x="39.26" y="23.08" class="st4" width="19.36" height="3.29"/>
				<rect x="10.22" y="14.04" class="st2" width="11.7" height="3.29"/>
				<rect x="6.18" y="18.56" class="st5" width="11.7" height="3.29"/>
				<rect x="39.66" y="18.56" class="st2" width="11.7" height="3.29"/>
				<rect x="11.83" y="23.08" class="st5" width="11.7" height="3.29"/>
				<rect x="25.54" y="23.08" class="st3" width="11.7" height="3.29"/>
				<rect x="23.53" y="14.04" class="st5" width="11.7" height="3.29"/>
				<rect x="40.06" y="9.52" class="st5" width="11.7" height="3.29"/>
				<rect x="36.43" y="14.04" class="st3" width="11.7" height="3.29"/>
				<rect x="27.16" y="9.52" class="st4" width="11.7" height="3.29"/>
			</g>
		</g>
		<g class="st1">
			<g>
				<rect x="7.28" y="66.23" class="st2" width="19.36" height="3.29"/>
				<rect x="19.78" y="75.26" class="st3" width="19.36" height="3.29"/>
				<rect x="39.95" y="79.78" class="st4" width="19.36" height="3.29"/>
				<rect x="10.91" y="70.74" class="st2" width="11.7" height="3.29"/>
				<rect x="6.88" y="75.26" class="st5" width="11.7" height="3.29"/>
				<rect x="40.35" y="75.26" class="st2" width="11.7" height="3.29"/>
				<rect x="12.52" y="79.78" class="st5" width="11.7" height="3.29"/>
				<rect x="26.24" y="79.78" class="st3" width="11.7" height="3.29"/>
				<rect x="24.22" y="70.74" class="st5" width="11.7" height="3.29"/>
				<rect x="40.76" y="66.23" class="st5" width="11.7" height="3.29"/>
				<rect x="37.13" y="70.74" class="st3" width="11.7" height="3.29"/>
				<rect x="27.85" y="66.23" class="st4" width="11.7" height="3.29"/>
			</g>
			<g>
				<rect x="5.9" y="47.64" class="st2" width="19.36" height="3.29"/>
				<rect x="18.4" y="56.68" class="st3" width="19.36" height="3.29"/>
				<rect x="38.56" y="61.2" class="st4" width="19.36" height="3.29"/>
				<rect x="9.52" y="52.16" class="st2" width="11.7" height="3.29"/>
				<rect x="5.49" y="56.68" class="st5" width="11.7" height="3.29"/>
				<rect x="38.97" y="56.68" class="st2" width="11.7" height="3.29"/>
				<rect x="11.14" y="61.2" class="st5" width="11.7" height="3.29"/>
				<rect x="24.85" y="61.2" class="st3" width="11.7" height="3.29"/>
				<rect x="22.83" y="52.16" class="st5" width="11.7" height="3.29"/>
				<rect x="39.37" y="47.64" class="st5" width="11.7" height="3.29"/>
				<rect x="35.74" y="52.16" class="st3" width="11.7" height="3.29"/>
				<rect x="26.46" y="47.64" class="st4" width="11.7" height="3.29"/>
			</g>
		</g>
	</g>
</g>
<g>
	<path class="st6" d="M55.97,3C44.12,3,34.1,10.94,30.75,21.89h3.78C37.59,12.82,46.03,6.3,55.97,6.3
		c12.51,0,22.65,10.33,22.65,23.07c0,9.14-5.22,17.05-12.79,20.78l-2.52,5.59c11.01-3.24,19.07-13.58,19.07-25.85
		C82.37,15.04,70.55,3,55.97,3z"/>
	<polygon class="st7" points="63.12,51.84 63.07,51.82 63.04,51.89 42.14,42.79 42.17,42.7 41.43,42.37 39.45,47.07 40.21,47.4 
		40.23,47.35 61.13,56.45 61.1,56.52 61.14,56.54 	"/>
	<path class="st7" d="M79.45,83.04c-0.26-1.35-0.39-2.72-0.39-4.1c0-0.37,0.02-0.86,0.07-1.48l-12.81,0.02l0.17-34.55l-5.68,0.01
		l-0.21,7.44h0.03v5.12h-0.03l0.04,26.95l12.98-0.02c0.18,1.19,0.43,2.33,0.73,3.41c0.31,1.08,0.72,2.13,1.24,3.17l5.13-2.14
		C80.14,85.67,79.71,84.39,79.45,83.04z"/>
	<polygon class="st7" points="43.16,54.12 43.2,53.91 43.24,32.25 37.36,32.2 37.07,82.2 42.95,82.26 43.16,58.43 43.17,57.99 	"/>
</g>
</svg>
